<?xml version="1.0" encoding="utf-8"?>
<svg viewBox="0 0 1000 700" xmlns="http://www.w3.org/2000/svg">
  <defs>
    <style>
      .title { font-family: Arial, sans-serif; font-size: 20px; font-weight: bold; text-anchor: middle; }
      .subtitle { font-family: Arial, sans-serif; font-size: 14px; font-weight: bold; text-anchor: middle; }
      .component { font-family: Arial, sans-serif; font-size: 12px; text-anchor: middle; }
      .master-bg { fill: #e8f4fd; stroke: #2196f3; stroke-width: 2; }
      .node-bg { fill: #f3e5f5; stroke: #9c27b0; stroke-width: 2; }
      .etcd-bg { fill: #fff3e0; stroke: #ff9800; stroke-width: 2; }
      .component-box { fill: #ffffff; stroke: #666; stroke-width: 1; }
      .arrow { stroke: #666; stroke-width: 2; fill: none; marker-end: url(#arrowhead); }
    </style>
    <marker id="arrowhead" markerWidth="10" markerHeight="7" refX="9" refY="3.5" orient="auto">
      <polygon points="0 0, 10 3.5, 0 7" fill="#666"/>
    </marker>
  </defs>
  <text x="500" y="30" class="title" style="white-space: pre;">Kubernetes Architecture</text>
  <rect x="51.122" y="28.209" width="200" height="60" class="component-box" rx="5"/>
  <text x="151.122" y="53.209" class="component" style="white-space: pre; font-size: 12px;">External Users / kubectl / Dashboard</text>
  <rect x="50" y="130" width="400" height="280" class="master-bg" rx="10"/>
  <text x="250" y="155" class="subtitle" style="white-space: pre;">Master Node (Control Plane)</text>
  <rect x="70" y="170" width="120" height="60" class="component-box" rx="5"/>
  <text x="130" y="195" class="component" style="white-space: pre;">API Server</text>
  <text x="130" y="210" class="component" style="white-space: pre;">(kube-apiserver)</text>
  <rect x="210" y="170" width="120" height="60" class="component-box" rx="5"/>
  <text x="270" y="195" class="component" style="white-space: pre;">Controller</text>
  <text x="270" y="210" class="component" style="white-space: pre;">Manager</text>
  <rect x="350" y="170" width="80" height="60" class="component-box" rx="5"/>
  <text x="390" y="195" class="component" style="white-space: pre;">Scheduler</text>
  <text x="390" y="210" class="component" style="white-space: pre;">(kube-scheduler)</text>
  <rect x="70" y="250" width="120" height="60" class="component-box" rx="5"/>
  <text x="130" y="275" class="component" style="white-space: pre;">Cloud Controller</text>
  <text x="130" y="290" class="component" style="white-space: pre;">Manager</text>
  <rect x="210" y="250" width="80" height="60" class="component-box" rx="5"/>
  <text x="250" y="275" class="component" style="white-space: pre;">kube-proxy</text>
  <rect x="310" y="250" width="80" height="60" class="component-box" rx="5"/>
  <text x="350" y="275" class="component" style="white-space: pre;">kubelet</text>
  <rect x="70" y="330" width="100" height="60" class="component-box" rx="5"/>
  <text x="120" y="355" class="component" style="white-space: pre;">Container</text>
  <text x="120" y="370" class="component" style="white-space: pre;">Runtime</text>
  <rect x="669.883" y="125.274" width="140" height="120" class="etcd-bg" rx="10"/>
  <text x="739.883" y="150.274" class="subtitle" style="white-space: pre; font-size: 14px;">etcd Cluster</text>
  <rect x="689.883" y="165.274" width="100" height="60" class="component-box" rx="5"/>
  <text x="739.883" y="190.274" class="component" style="white-space: pre; font-size: 12px;">Distributed</text>
  <text x="739.883" y="205.274" class="component" style="white-space: pre; font-size: 12px;">Key-Value Store</text>
  <rect x="50" y="450" width="300" height="280" class="node-bg" rx="10"/>
  <text x="200" y="475" class="subtitle" style="white-space: pre;">Worker Node 1</text>
  <rect x="380" y="450" width="300" height="280" class="node-bg" rx="10"/>
  <text x="530" y="475" class="subtitle" style="white-space: pre;">Worker Node 2</text>
  <rect x="70" y="490" width="80" height="50" class="component-box" rx="5"/>
  <text x="110" y="520" class="component" style="white-space: pre;">kubelet</text>
  <rect x="160" y="490" width="80" height="50" class="component-box" rx="5"/>
  <text x="200" y="520" class="component" style="white-space: pre;">kube-proxy</text>
  <rect x="250" y="490" width="80" height="50" class="component-box" rx="5"/>
  <text x="290" y="510" class="component" style="white-space: pre;">Container</text>
  <text x="290" y="525" class="component" style="white-space: pre;">Runtime</text>
  <rect x="70" y="550" width="260" height="160" class="component-box" rx="5"/>
  <text x="200" y="570" class="component" style="white-space: pre;">Pods</text>
  <rect x="90" y="580" width="70" height="40" class="component-box" rx="3"/>
  <text x="125" y="605" class="component" style="white-space: pre;">Pod 1</text>
  <rect x="170" y="580" width="70" height="40" class="component-box" rx="3"/>
  <text x="205" y="605" class="component" style="white-space: pre;">Pod 2</text>
  <rect x="250" y="580" width="70" height="40" class="component-box" rx="3"/>
  <text x="285" y="605" class="component" style="white-space: pre;">Pod 3</text>
  <rect x="90" y="630" width="70" height="40" class="component-box" rx="3"/>
  <text x="125" y="655" class="component" style="white-space: pre;">Pod 4</text>
  <rect x="170" y="630" width="70" height="40" class="component-box" rx="3"/>
  <text x="205" y="655" class="component" style="white-space: pre;">Pod 5</text>
  <rect x="400" y="490" width="80" height="50" class="component-box" rx="5"/>
  <text x="440" y="520" class="component" style="white-space: pre;">kubelet</text>
  <rect x="490" y="490" width="80" height="50" class="component-box" rx="5"/>
  <text x="530" y="520" class="component" style="white-space: pre;">kube-proxy</text>
  <rect x="580" y="490" width="80" height="50" class="component-box" rx="5"/>
  <text x="620" y="510" class="component" style="white-space: pre;">Container</text>
  <text x="620" y="525" class="component" style="white-space: pre;">Runtime</text>
  <rect x="400" y="550" width="260" height="160" class="component-box" rx="5"/>
  <text x="530" y="570" class="component" style="white-space: pre;">Pods</text>
  <rect x="420" y="580" width="70" height="40" class="component-box" rx="3"/>
  <text x="455" y="605" class="component" style="white-space: pre;">Pod 6</text>
  <rect x="500" y="580" width="70" height="40" class="component-box" rx="3"/>
  <text x="535" y="605" class="component" style="white-space: pre;">Pod 7</text>
  <rect x="580" y="580" width="70" height="40" class="component-box" rx="3"/>
  <text x="615" y="605" class="component" style="white-space: pre;">Pod 8</text>
  <rect x="420" y="630" width="70" height="40" class="component-box" rx="3"/>
  <text x="455" y="655" class="component" style="white-space: pre;">Pod 9</text>
  <line x1="130" y1="170" x2="129.925" y2="87.996" class="arrow" style="transform-box: fill-box; transform-origin: 50% 50%;" transform="matrix(-1, 0, 0, -1, 0.000007, -0.00001)"/>
  <path class="arrow" d="M 190 187.46 C 254.011 42.896 615.812 107.901 666.944 128.241" style=""/>
  <path class="arrow" d="M 71.192 194.032 C -58.216 323.62 73.713 474.415 88.091 489.242"/>
  <path class="arrow" d="M 350 200 C 349.204 281.282 189.73 227.561 190 200"/>
  <line x1="210" y1="200" x2="190" y2="200" class="arrow"/>
  <rect x="720" y="420" width="250" height="180" class="component-box" rx="5"/>
  <text x="845" y="445" class="subtitle" style="white-space: pre;">Legend</text>
  <rect x="730" y="460" width="15" height="15" class="master-bg"/>
  <text x="789.145" y="472" class="component" style="white-space: pre; font-size: 12px;">Master Node</text>
  <rect x="730" y="485" width="15" height="15" class="node-bg"/>
  <text x="789.145" y="497" class="component" style="white-space: pre; font-size: 12px;">Worker Node</text>
  <rect x="730" y="510" width="15" height="15" class="etcd-bg"/>
  <text x="789.145" y="522" class="component" style="white-space: pre; font-size: 12px;">etcd Cluster</text>
  <rect x="730" y="535" width="15" height="15" class="component-box"/>
  <text x="789.145" y="547" class="component" style="white-space: pre; font-size: 12px;">Component</text>
  <line x1="730" y1="565" x2="755" y2="565" class="arrow"/>
  <text x="799.145" y="570" class="component" style="white-space: pre; font-size: 12px;">Communication</text>
</svg>